<svg xmlns="http://www.w3.org/2000/svg" viewBox="0 0 1000 1000" role="img" aria-labelledby="title desc">
<title id="title">Four-family generation tree</title><desc id="desc">A crisp tree-ring exhibit divided into Blackwell, Zahner, Downing, and Barrett sections around Present Day.</desc>
<defs>
 <radialGradient id="wood" cx="48%" cy="46%"><stop offset="0" stop-color="#e7c883"/><stop offset=".45" stop-color="#c99a53"/><stop offset=".82" stop-color="#a56c34"/><stop offset="1" stop-color="#6e3b20"/></radialGradient>
 <filter id="shadow"><feDropShadow dx="0" dy="12" stdDeviation="12" flood-opacity=".35"/></filter>
 <pattern id="grain" width="12" height="12" patternUnits="userSpaceOnUse"><path d="M0 6 Q3 2 6 6T12 6" fill="none" stroke="#6f3d20" stroke-opacity=".18" stroke-width="1"/></pattern>
</defs>
<g filter="url(#shadow)"><circle cx="500" cy="500" r="435" fill="url(#wood)" stroke="#4c2817" stroke-width="28"/><circle cx="500" cy="500" r="425" fill="url(#grain)"/></g>
<g fill="none" stroke="#71401f" stroke-opacity=".55" stroke-width="3"><circle cx="500" cy="500" r="95"/><circle cx="500" cy="500" r="140"/><circle cx="500" cy="500" r="185"/><circle cx="500" cy="500" r="230"/><circle cx="500" cy="500" r="275"/><circle cx="500" cy="500" r="320"/><circle cx="500" cy="500" r="365"/><circle cx="500" cy="500" r="410"/></g>
<g stroke="#4f2a18" stroke-width="5"><path d="M500 500 L190 190"/><path d="M500 500 L810 190"/><path d="M500 500 L810 810"/><path d="M500 500 L190 810"/></g>
<g font-family="Georgia,serif" text-anchor="middle" font-weight="700" fill="#2c1b10"><text x="500" y="125" font-size="42">BLACKWELL</text><text x="835" y="515" font-size="42">ZAHNER</text><text x="500" y="890" font-size="42">DOWNING</text><text x="165" y="515" font-size="42">BARRETT</text></g>
<circle cx="500" cy="500" r="90" fill="#ead39b" stroke="#6c3d20" stroke-width="6"/><text x="500" y="488" text-anchor="middle" font-family="Georgia,serif" font-size="30" font-weight="700" fill="#2b190f">PRESENT</text><text x="500" y="528" text-anchor="middle" font-family="Georgia,serif" font-size="30" font-weight="700" fill="#2b190f">DAY</text>
<g font-family="Georgia,serif" text-anchor="middle" font-size="20" fill="#3a2416"><text x="500" y="401">1</text><text x="500" y="357">2</text><text x="500" y="313">3</text><text x="500" y="269">4</text><text x="500" y="225">5</text><text x="500" y="181">6</text><text x="500" y="137">7</text></g>
<g stroke="#f4e7c7" stroke-width="3"><circle cx="430" cy="410" r="13" fill="#4e7b32"/><circle cx="570" cy="410" r="13" fill="#4e7b32"/><circle cx="400" cy="350" r="13" fill="#4e7b32"/><circle cx="600" cy="350" r="13" fill="#4e7b32"/><circle cx="455" cy="290" r="13" fill="#4e7b32"/><circle cx="545" cy="260" r="13" fill="#4e7b32"/><circle cx="380" cy="240" r="13" fill="#4e7b32"/><circle cx="590" cy="465" r="13" fill="#2c74a3"/><circle cx="650" cy="430" r="13" fill="#2c74a3"/><circle cx="710" cy="405" r="13" fill="#2c74a3"/><circle cx="665" cy="520" r="13" fill="#2c74a3"/><circle cx="735" cy="555" r="13" fill="#2c74a3"/><circle cx="785" cy="470" r="13" fill="#2c74a3"/><circle cx="455" cy="590" r="13" fill="#d09a19"/><circle cx="545" cy="590" r="13" fill="#d09a19"/><circle cx="420" cy="655" r="13" fill="#d09a19"/><circle cx="580" cy="655" r="13" fill="#d09a19"/><circle cx="470" cy="725" r="13" fill="#d09a19"/><circle cx="530" cy="780" r="13" fill="#d09a19"/><circle cx="610" cy="735" r="13" fill="#d09a19"/><circle cx="410" cy="465" r="13" fill="#a94b3a"/><circle cx="350" cy="430" r="13" fill="#a94b3a"/><circle cx="290" cy="405" r="13" fill="#a94b3a"/><circle cx="335" cy="520" r="13" fill="#a94b3a"/><circle cx="265" cy="555" r="13" fill="#a94b3a"/><circle cx="215" cy="470" r="13" fill="#a94b3a"/></g><g font-family="Georgia,serif" font-size="19" fill="#3c281a" text-anchor="middle"><text x="500" y="955">Each ring represents one generation farther from the present.</text></g></svg>